<?xml version="1.0" encoding="utf-8"?>
<!-- Generator: Adobe Illustrator 23.0.2, SVG Export Plug-In . SVG Version: 6.00 Build 0)  -->
<svg version="1.1" id="Calque_1" xmlns="http://www.w3.org/2000/svg" xmlns:xlink="http://www.w3.org/1999/xlink" x="0px" y="0px"
	 width="977.7909546px" height="240px" viewBox="0 0 977.7909546 240" style="enable-background:new 0 0 977.7909546 240;"
	 xml:space="preserve">
<path style="fill:#E25522;" d="M502.6076355,108.4441605h-88.6165771v28.0437546h63.8006897
	c-1.8864136,8.2161865-4.9044495,16.0130463-8.8448486,23.2229767c-0.3354187,0.6288757-0.7127991,1.2577667-1.0479736,1.8863983
	c-0.1678162,0.2514954-0.293457,0.5449677-0.4613037,0.796463c-0.7962036,1.3833923-1.6346436,2.7248383-2.5569763,4.0662689
	c-0.0836792,0.1256256-0.167572,0.2515106-0.2514954,0.4190826c-1.0479736,1.5929413-2.1796265,3.1858826-3.3534546,4.6949005
	c-1.1738586,1.5929413-2.4313965,3.1019592-3.7308655,4.6112366c-0.0419617,0.0417023-0.0419617,0.0417023-0.0836487,0.0836639
	c-1.131897,1.299469-2.3057556,2.5989532-3.5213013,3.8147583c-0.5030212,0.5449677-1.006012,1.0479736-1.5509949,1.5509796
	c-1.0479736,1.0479736-2.1798401,2.0959473-3.3114929,3.1019592c-1.131897,1.0479736-2.3057556,2.0120239-3.5213013,2.9763336
	c-0.3354187,0.2931976-0.6288757,0.5449677-0.9640503,0.7545013c-0.0839233,0.0836639-0.1678467,0.1675873-0.2514954,0.209549
	c-1.2158203,0.9640503-2.431366,1.8444366-3.6889038,2.724823c-0.6708374,0.503006-1.3833923,0.9640656-2.0959167,1.4251099
	h-0.0419617c-1.2575378,0.8803864-2.5152893,1.6768494-3.8147888,2.431366
	c-1.9281006,1.1316376-3.8564453,2.2215729-5.8684692,3.1858673c-1.299469,0.6705933-2.5989685,1.2575226-3.8984375,1.8444519
	c-0.3773804,0.1675873-0.7545166,0.3351593-1.0899353,0.4610443c-0.7125549,0.3354187-1.425354,0.6286316-2.1379089,0.880127
	c-0.9640503,0.3773804-1.9283447,0.754776-2.892395,1.0899353c-0.7125549,0.2515106-1.3833923,0.503006-2.0959473,0.7545166
	c-0.5449829,0.1678314-1.131897,0.3354187-1.6768494,0.5032501c-0.7545166,0.2515106-1.4670715,0.4610596-2.2215881,0.6705933
	c-0.167572,0.0419617-0.3354187,0.1256256-0.5029907,0.1256256c-0.0839233,0.0419617-0.1676025,0.0839233-0.2515259,0.0839233
	c-0.0838928,0.0419617-0.1678162,0.0839233-0.2514954,0.0839233c-0.6708374,0.167572-1.3414307,0.3354187-2.0122681,0.503006
	c-2.1376648,0.5449677-4.3175354,1.006012-6.5393372,1.3833923c-2.0539856,0.3351593-4.1499329,0.6286316-6.2458801,0.8381653
	c-3.1439209,0.335434-6.3298035,0.5032654-9.557373,0.5032654c-1.5090332,0-3.0183105-0.0419617-4.5273132-0.125885
	c-1.2575073-0.0419464-2.5150452-0.1258698-3.730835-0.2514954c-0.8801575-0.0839233-1.7605286-0.1675873-2.6409302-0.293457
	c-0.4610291-0.0419617-0.9220886-0.0839233-1.3831177-0.1675873c-0.9223633-0.0839233-1.8864136-0.2515106-2.8087769-0.419342
	c-0.167572,0-0.3771057-0.0419617-0.5449524-0.0836639c-0.7125549-0.125885-1.3831482-0.2515106-2.0959473-0.3773804
	c-10.9407654-2.0959473-21.2109375-6.1619568-30.3912048-11.695282c-2.5150146-1.5929413-4.9463806-3.2278442-7.2938538-4.9883575
	c-0.0419312,0-0.0419312-0.0419617-0.0836487-0.0419617c-0.5449524-0.4190826-1.0899353-0.8384247-1.6348877-1.2575226
	c-0.0839233-0.0419617-0.1678467-0.1258698-0.2515259-0.2095337c-1.0899353-0.8803864-2.2218018-1.760788-3.2697754-2.6828766
	c-0.5449829-0.4610443-1.0479736-0.922348-1.5509949-1.425354c-0.4190674-0.3354187-0.8384094-0.7125549-1.2155457-1.0899353
	c-0.8804016-0.796463-1.6768494-1.5929413-2.5152893-2.4311066c-0.6286316-0.6708527-1.2575073-1.2994843-1.8861389-1.9703217
	c-0.2098083-0.2515106-0.419342-0.4610443-0.6708679-0.7125549c-0.3354187-0.3773804-0.7125244-0.796463-1.0899048-1.2155457
	c-1.006012-1.131897-1.9700928-2.3057556-2.9341431-3.5213013c-0.5869141-0.7125549-1.1318665-1.425354-1.6768494-2.1798706
	c-6.7069092-8.9704437-11.8631287-19.1986694-14.9650879-30.2653198c0,0,0,0,0-0.0419617
	c-2.3474426-8.0483551-3.5629883-16.5580139-3.5629883-25.3189163c0-5.1142349,0.4190979-10.1445541,1.2575073-15.048996
	c0,0,0,0,0-0.0419617c0.1676025-1.2155533,0.3771362-2.3474426,0.6286316-3.5210419c0-0.0419617,0-0.0839157,0-0.0839157
	c3.5213013-17.1449432,11.7374878-32.5291061,23.3071594-44.8113136V51.853653
	c0.041687-0.0419617,0.041687-0.0839195,0.041687-0.0839195c7.4617004-7.8805161,16.2645569-14.4618149,26.0317383-19.3665085
	c10.2282104-5.1139832,21.5463867-8.4254837,33.5351257-9.4317532c2.598938-0.2095432,5.2398682-0.3351669,7.9227295-0.3351669
	c14.713562,0,28.6304016,3.4373798,40.9545898,9.5154171L396.552887,0.3773826C393.5765686,0.1258795,390.516571,0,387.4565735,0
	c-63.7167664,0-115.402832,51.6441078-115.402832,115.4028397c0,63.7165146,51.6860657,115.4025803,115.402832,115.4025803
	c62.1655273,0,112.8455811-49.1288147,115.276947-110.6657257c0.0836792-1.5929337,0.1256409-3.1439133,0.1256409-4.7368546
	c0-2.3057404-0.0836792-4.6112289-0.2515259-6.9167175V108.4441605z M188.2563629,140.4221497h-6.5436859v40.7522125
	c0,2.5912781-0.5444489,5.1825562-1.2260437,7.2252808c-2.8635101,6.5416412-9.8145142,13.2224579-19.3547363,13.2224579
	c-12.9502411,0-17.3120117-10.221817-17.3120117-24.3981018v-36.8018494h-6.5416412v38.0258484
	c0,24.6723785,14.0391388,28.8970184,22.3533325,28.8970184c11.5870514,0,19.0825043-7.0860901,22.3533325-13.2224579h0.2742767
	l0.4073029,11.7241821h6.1343231c-0.4093628-5.0433655-0.5444489-10.221817-0.5444489-15.948822V140.4221497z
	 M230.3840332,138.9197845c-11.3148193,0-19.356781,5.3176422-24.1279297,13.9061127h-0.2722168l-0.4093628-12.4037476h-6.2694244
	c0.4093628,6.2673798,0.5444641,12.6739197,0.5444641,20.8530273v71.5609436h6.5436859v-37.6205597h0.2722168
	c4.4989166,7.9048157,12.8131104,12.1294556,22.2182465,12.1294556c15.8116913,0,29.7136993-11.9943695,29.7136993-35.3035736
	C258.5974121,152.8258972,247.2846375,138.9197845,230.3840332,138.9197845z M228.47435,201.8922882
	c-10.086731,0-18.8102875-6.5416412-21.5366516-16.6283722c-0.4073181-1.6333618-0.5444489-3.4059143-0.5444489-5.1784668
	v-12.8130951c0-1.7725525,0.5444489-3.8152771,0.9538116-5.5878143
	c2.8635101-10.7703857,12.1315155-17.3120117,21.6737976-17.3120117c14.8558197,0,23.0349121,13.2224579,23.0349121,27.9431915
	C252.0557709,189.7628174,243.4673157,201.8922882,228.47435,201.8922882z M575.6131592,164.681076
	c0-11.5850067-3.6801758-25.7612915-22.6276245-25.7612915c-5.8600464,0-13.2224731,1.6374664-19.2196655,5.5878296
	l2.0447998,4.7731781c4.7711182-3.4100037,10.7683105-4.9082642,16.4932861-4.9082642
	c15.5394897-0.1351013,16.7655029,12.8130951,16.7655029,19.2196503v1.7725372
	c-26.7150879-0.2742767-39.937561,8.8586426-39.937561,23.988739c0,8.7235565,5.9971924,17.9915619,19.2196655,17.9915619
	c10.4960938,0,17.7192993-5.8620911,20.9901123-10.9013672h0.274292l0.9537964,9.4030914h5.9971924
	c-0.8187256-5.0433655-0.9537964-10.3610077-0.9537964-15.5394592V164.681076z M569.069458,184.8545532
	c0,1.0930023-0.1350708,2.5912628-0.6815796,3.9544525c-2.1798706,6.4065552-8.451355,13.0832825-19.3547363,13.0832825
	c-6.815918,0-13.0853271-4.2246399-13.0853271-13.6277313c0-15.6745605,18.8103027-17.8564758,33.1216431-17.447113V184.8545532z
	 M625.921936,205.8467407h6.5437012v-96.7777863h-6.5437012V205.8467407z M687.2672119,116.0220032
	c-2.9985962,0-5.3155518,2.7263641-5.3155518,5.7249603c0,2.9965439,2.0447388,5.587822,5.043335,5.587822
	c3.407959,0,5.4527588-2.5912781,5.4527588-5.587822C692.4477539,118.6112289,690.2658081,116.0220032,687.2672119,116.0220032z
	 M683.9963989,205.8467407h6.5437012v-65.4245911h-6.5437012V205.8467407z M741.6635742,205.8467407h6.5436401v-96.7777863
	h-6.5436401V205.8467407z M823.7288208,138.9197845c-16.9026489,0-29.4435425,13.6318359-29.4435425,35.4386597
	c0,19.2196503,11.722168,32.8514862,30.5324097,32.8514862c11.4499512,0,18.1287231-2.8614655,20.5828247-4.2246399
	l-1.635376-5.0433655c-3.6801758,1.7725372-8.588501,3.6801758-18.1287231,3.6801758
	c-13.6297607,0-24.9445801-8.3141785-24.9445801-29.1712952h48.25177c0.274231-1.223999,0.274231-2.1778107,0.274231-3.9503632
	C849.2178345,159.0932617,845.1282959,138.9197845,823.7288208,138.9197845z M800.9640503,167.2723541
	c1.2280884-10.086731,7.4974976-22.899826,21.9460449-22.899826c15.8116455,0,19.6289673,13.7669067,19.4918213,22.899826
	H800.9640503z M839.9478149,112.0695953h-9.5402222l-12.1315308,18.8102875h5.043396L839.9478149,112.0695953z
	 M944.5096436,168.5004425c0-9.4071808-4.0895386-29.580658-25.4910889-29.580658
	c-16.9026489,0-29.4435425,13.6318359-29.4435425,35.4386597c0,19.2196503,11.722168,32.8514862,30.5365601,32.8514862
	c11.4498901,0,18.1266479-2.8614655,20.5828247-4.2246399l-1.6374512-5.0433655
	c-3.6801758,1.7725372-8.588501,3.6801758-18.1307373,3.6801758c-13.6298218,0-24.9446411-8.3141785-24.9446411-29.1712952
	h48.2538452C944.5096436,171.2268066,944.5096436,170.272995,944.5096436,168.5004425z M896.2537842,167.2723541
	c1.2280884-10.086731,7.4974976-22.899826,21.9501343-22.899826c15.8096313,0,19.624939,13.7669067,19.4898071,22.899826
	H896.2537842z M107.0303192,143.1894531c-4.2819519-2.1982727-9.0039673-3.9953918-14.1640015-5.3831329
	c-5.1661758-1.3836517-10.32621-2.6403961-15.4882965-3.7743378c-5.1641312-1.1339417-9.8861465-2.484848-14.1660461-4.0649872
	c-4.2819519-1.5719604-7.7758751-3.9953918-10.4817734-7.2703094c-2.707943-3.2708206-4.0608902-7.4872742-4.0608902-12.65345
	c0-7.931427,2.5789948-13.9756927,7.7451706-18.1307373c5.1600342-4.1550446,11.8981705-6.2325668,20.2082596-6.2325668
	s14.8558273,1.9833679,19.6433487,5.9501038c4.7834167,3.9646912,7.4279099,8.5925598,7.931427,13.8815384h14.9213257
	c-1.5105515-9.4440308-5.7925034-16.998848-12.8438034-22.664444c-7.0533447-5.6656036-16.7143402-8.4984055-28.9911728-8.4984055
	s-22.1629753,3.2749176-29.6522942,9.8206482c-7.493412,6.5477829-11.2390938,14.857872-11.2390938,24.9302826
	c0,10.0744553,2.5175896,17.7520752,7.5548172,23.0410614c5.0351791,5.2889862,11.1121902,8.8504639,18.2269402,10.6721344
	c7.1127052,1.8257599,14.2274513,3.4304657,21.342205,4.8182068c7.1127014,1.3836517,13.1876678,3.8684998,18.2269363,7.4586182
	c5.0331345,3.5901184,7.5527725,8.9405212,7.5527725,16.0552673s-2.7386475,13.0628052-8.2138901,17.8482819
	c-5.4772949,4.7854614-12.8438034,7.1761475-22.0995331,7.1761475c-9.2536774,0-16.2128677-1.9854126-20.8693848-5.9480591
	c-4.6606102-3.9667358-7.2416534-8.9732666-7.7431221-15.0154724H36.3924789
	c0,9.8206329,4.0301895,17.6272125,12.0885239,23.4197235c8.0562859,5.7924957,18.5380554,8.6867065,31.4473572,8.6867065
	c12.9052048,0,23.0717697-3.7129364,30.5017319-11.1428986c7.4279099-7.4299622,11.1428909-16.1166687,11.1428909-26.0642242
	c0-6.6726227-1.352951-12.276825-4.0608902-16.8084869C114.8041458,148.76091,111.3102188,145.3959351,107.0303192,143.1894531z"/>
<path style="fill:#9C98D3;" d="M524.0004883,80.8617096h3.545105V45.4025841h-3.545105V80.8617096z M525.6256714,38.3083038
	c1.8462524,0,2.9535522-1.4041214,2.9535522-3.0292969c0-1.6988602-1.1809692-3.1029816-2.8061523-3.1029816
	s-2.881958,1.4778061-2.881958,3.1029816S524.0004883,38.3083038,525.6256714,38.3083038z M552.4533691,80.8617096h3.545105
	V58.9197884c0-1.109375,0.2210693-2.2883453,0.4441528-3.1766663c1.4020996-4.5807838,5.6881104-8.1258774,10.6373291-8.1258774
	c7.3132935,0,9.8267822,5.837532,9.8267822,12.2645531v20.9799118h3.545105V59.582962
	c0-13.2961502-9.012146-14.9950142-12.4119263-14.9950142c-5.7617798,0-10.2689209,3.2503548-12.1888428,7.2416534h-0.1473389
	l-0.2231445-6.4270172h-3.3240356c0.2210693,2.8041458,0.296814,5.2439537,0.296814,8.4943085V80.8617096z M617.3334961,80.8617096
	c6.3533325,0,10.4899902-3.250351,12.3382568-6.869133h0.1473389V79.01548c0,10.4879074-5.3933716,14.3318405-12.8540039,14.3318405
	c-4.5808105,0-8.0542603-1.3304367-10.5656738-2.9556122l-1.2546997,2.8082428
	c2.7324829,2.0672836,7.239563,3.1029816,11.3024902,3.1029816c3.9892578,0,8.7911377-1.1093826,12.0415039-4.2123642
	c2.9555664-2.8082352,4.8775635-7.3153381,4.8775635-16.3991241v-21.131382c0-3.6924667,0.0736694-6.5007057,0.2947388-9.1574783
	h-3.2503662l-0.2230835,5.9808121h-0.1473999c-1.4777832-2.9556122-4.9492188-6.7954483-11.9677734-6.7954483
	c-7.8311157,0-15.9569702,6.5007057-15.9569702,18.8389435C602.1154175,73.1042633,608.3950195,80.8617096,617.3334961,80.8617096z
	 M618.3671265,47.54356c5.8375854,0,9.5320435,3.7661514,11.0078125,8.0521927
	c0.3704834,1.0356903,0.4441528,2.140976,0.4441528,3.4714088v7.0942841c0,1.252655-0.2210083,2.5830841-0.5914917,3.7661514
	c-1.8462524,5.0965805-6.2059937,7.978508-11.0078125,7.978508c-8.3469238,0-12.5593262-6.869133-12.5593262-14.847641
	C605.6604614,53.6758347,610.8328247,47.54356,618.3671265,47.54356z M680.0706177,30.0350513h-5.1702881l-6.576416,10.1931705
	h2.7345581L680.0706177,30.0350513z M671.8710327,81.5985641c6.2059937,0,9.8247681-1.5514908,11.1552124-2.2883453
	l-0.8862915-2.7345505c-1.9956665,0.9620056-4.65448,1.9976959-9.8267822,1.9976959
	c-7.3869629,0-13.5192871-4.5070953-13.5192871-15.8096428h26.1522827c0.1494141-0.6672668,0.1494141-1.1830635,0.1494141-2.1450691
	c0-5.0965843-2.2167358-16.0307045-13.81604-16.0307045c-9.1616211,0-15.9570312,7.3890266-15.9570312,19.2073708
	C655.3225098,74.2136383,661.6758423,81.5985641,671.8710327,81.5985641z M670.8374023,47.54356
	c8.5679932,0,10.6373291,7.4627075,10.5636597,12.4119225h-22.4597778
	C659.6065063,54.4863777,663.0062866,47.54356,670.8374023,47.54356z M707.1275635,80.8617096h3.5450439V58.9197884
	c0-1.109375,0.2210693-2.2883453,0.4442139-3.1766663c1.4020386-4.5807838,5.6881104-8.1258774,10.6373291-8.1258774
	c7.3132935,0,9.8267822,5.837532,9.8267822,12.2645531v20.9799118h3.545105V59.582962
	c0-13.2961502-9.012207-14.9950142-12.4119263-14.9950142c-5.7618408,0-10.2689209,3.2503548-12.1888428,7.2416534h-0.1473999
	l-0.2230835-6.4270172h-3.3240356c0.2210693,2.8041458,0.296814,5.2439537,0.296814,8.4943085V80.8617096z M759.7451782,80.8617096
	h3.545105V45.4025841h-3.545105V80.8617096z M761.3703613,38.3083038c1.8461914,0,2.9535522-1.4041214,2.9535522-3.0292969
	c0-1.6988602-1.1810303-3.1029816-2.8062134-3.1029816s-2.881897,1.4778061-2.881897,3.1029816
	S759.7451782,38.3083038,761.3703613,38.3083038z M801.7889404,81.5985641c6.2059326,0,9.824707-1.5514908,11.1551514-2.2883453
	l-0.8862915-2.7345505c-1.9956055,0.9620056-4.6544189,1.9976959-9.8267822,1.9976959
	c-7.3869629,0-13.5192261-4.5070953-13.5192261-15.8096428h26.1522217c0.1494141-0.6672668,0.1494141-1.1830635,0.1494141-2.1450691
	c0-5.0965843-2.2166748-16.0307045-13.81604-16.0307045c-9.1615601,0-15.9570312,7.3890266-15.9570312,19.2073708
	C785.2403564,74.2136383,791.593689,81.5985641,801.7889404,81.5985641z M800.755249,47.54356
	c8.5679932,0,10.6373291,7.4627075,10.5636597,12.4119225h-22.4597778
	C789.524353,54.4863777,792.9241333,47.54356,800.755249,47.54356z M848.8657837,81.6763458
	c6.2796631,0,10.3425903-3.8439331,12.1151733-7.1679688h0.1473389l0.2210693,6.3533325h3.3261108
	c-0.2231445-2.7345505-0.296814-5.5427856-0.296814-8.6416779V45.4025841h-3.545105v22.0892906
	c0,1.4000244-0.2967529,2.8041458-0.6652222,3.9135208c-1.5514526,3.5450974-5.3197021,7.1679688-10.4899292,7.1679688
	c-7.0185547,0-9.3826294-5.5427933-9.3826294-13.2265549V45.4025841h-3.5471802v20.6114845
	C836.7485962,79.3839035,844.3587036,81.6763458,848.8657837,81.6763458z M889.2188721,80.8617096h3.545105V61.2859154
	c0-1.1830635,0.0736694-2.366127,0.2947388-3.4018173c0.9620361-5.6860695,4.4334106-9.8984261,9.30896-9.8984261
	c0.6652222,0,1.1830444,0,1.6988525,0.1473732V44.735321c-0.4421387-0.0736847-0.9599609-0.1473732-1.4777832-0.1473732
	c-4.8018799,0-8.4943237,3.5450974-10.0458374,7.978508h-0.2230835l-0.1473999-7.1638718h-3.2503052
	c0.2210083,3.4714088,0.2967529,7.0901871,0.2967529,10.6352806V80.8617096z M930.5994873,78.647049
	c-3.1766968,0-6.0585938-1.2567444-7.9785156-2.4398117l-1.2567749,2.9556122
	c2.3661499,1.4778061,5.6165161,2.4357147,9.0142212,2.4357147c7.2416382,0,11.9697876-4.0608902,11.9697876-10.1194763
	c0-5.3913269-3.4017944-8.2732544-9.1615601-10.4920082c-4.8018188-1.9936028-7.3153687-3.6187782-7.3153687-7.311245
	c0-3.250351,2.3661499-6.1322746,6.87323-6.1322746c3.545105,0,5.8334351,1.2567482,7.09021,2.1409721l1.3304443-2.8819237
	c-1.772583-1.252655-4.5808105-2.2146606-7.8311157-2.2146606c-6.8691406,0-10.9341431,4.507103-10.9341431,9.6036873
	c0,4.2860413,3.1766357,7.4627075,9.0142212,9.6773682c5.0965576,2.0713806,7.4586182,4.1386719,7.4586182,8.0521927
	C938.8727417,75.6177597,936.2159424,78.647049,930.5994873,78.647049z M0,99.475502h4.1918893V7.4176793h290.5401001V3.22579H0
	V99.475502z M973.5990601,125.3370895v110.4710159H513.2342529V240h464.5567017V125.3370895H973.5990601z"/>
<radialGradient id="SVGID_1_" cx="386.2618713" cy="115.4028397" r="92.1502762" gradientUnits="userSpaceOnUse">
	<stop  offset="0.1330812" style="stop-color:#FFFFFF"/>
	<stop  offset="0.6817001" style="stop-color:#BEBEE6"/>
	<stop  offset="1" style="stop-color:#9697D7"/>
</radialGradient>
<path style="fill:url(#SVGID_1_);" d="M295.2350159,106.2642975c-0.3354492,3.0182953-0.5030212,6.0363312-0.5030212,9.1385422
	c0,7.4614334,0.880127,14.7133102,2.5569763,21.630043c1.006012-2.7665405,2.0959473-5.5333252,3.3954468-8.2998657
	C297.4985352,119.8879395,295.9475403,111.9235001,295.2350159,106.2642975z M302.8642578,134.3080444
	c-0.9642944,2.3474426-1.8024597,4.6951599-2.5572205,7.0426025l-0.6286316,2.0120239l-0.6708679-0.209549
	c2.8504639,9.2219543,7.1682434,17.8155365,12.6176453,25.5704346c0.9642944-4.4853516,2.2218323-8.9287567,3.8147583-13.1625977
	C310.4096069,149.2731171,306.2177429,142.1888123,302.8642578,134.3080444z M318.5838623,159.2917938
	c-1.3414307,3.9403992-2.4733276,8.0066528-3.2698059,12.1565857l-0.3771362,1.7605286
	c0.9640503,1.2155457,1.9281311,2.3894043,2.9341431,3.5213013c0.3773804,0.4190826,0.7544861,0.8381653,1.0899048,1.2155457
	c0.2515259,0.2515106,0.4610596,0.4610443,0.6708679,0.7125549c0.6286316,0.6708374,1.2575073,1.3414307,1.8861389,1.9703217
	c0.8384399,0.8381653,1.6348877,1.6346436,2.5152893,2.4311066c0.4190979,0.3354187,0.7964783,0.7128143,1.2155457,1.0899353
	l5.6592102,2.8924103l1.9281006,0.7964783c1.6349182,0.6708374,3.2278442,1.299469,4.7788086,1.8444366
	c0.3773804-3.5630035,1.131897-8.0903168,2.5150452-13.0786743
	C331.8720703,171.9513855,324.6618958,166.1246033,318.5838623,159.2917938z M341.3457947,195.9288788
	c8.0483398,4.6112213,16.893158,8.0485992,26.282959,10.0606384c0.0419617-1.131897,0.0839233-2.4733276,0.2098083-3.8984375
	c-8.3001099-1.1318817-17.1869202-3.3534546-26.4508057-6.5812988L341.3457947,195.9288788z M341.6809387,191.1920166
	c9.3900452,3.3117523,18.3188171,5.6172485,26.6186523,6.7491302c0.4610596-3.6052094,1.1736145-7.0425873,2.0959473-10.2282104
	c-9.5993347-1.9703217-18.5280762-4.9883575-26.4927673-9.0546265
	C342.6452637,183.5210419,341.9744263,187.8805237,341.6809387,191.1920166z M372.4914856,198.4022064
	c20.7079468,2.0539856,32.6547241-3.7308502,38.523468-8.0483551c-3.4793396,0.2095337-6.8747559,0.2931976-10.2282104,0.2931976
	c-9.3478394,0-18.1089783-0.7125397-26.241272-2.1796112C373.6233826,191.569397,372.9525452,194.8809052,372.4914856,198.4022064z
	 M407.0326233,186.3295441c-9.557373-3.4373932-18.4024658-7.3777771-26.408844-11.7372437
	c-1.9283752,2.9760742-3.4793396,6.2878265-4.7368774,9.8508301
	C385.4025879,186.0780334,395.8403625,186.706665,407.0326233,186.3295441z M395.9240112,159.9626465h-0.0417175
	c-5.030304,2.7665405-9.3480835,6.4973755-12.8691101,11.1083527c8.5933228,4.6949005,18.1506958,8.8448181,28.5887146,12.4080811
	C406.1522217,175.9337311,400.8706665,168.0529633,395.9240112,159.9626465z M418.3927307,153.6748047
	c-6.9167175,0.503006-13.2045593,1.9281158-18.6959229,4.3594818c5.0722961,8.2998505,10.4797363,16.3482056,16.0969849,24.0614014
	C417.1349487,172.3704681,418.0153503,162.8547974,418.3927307,153.6748047z M422.6265869,153.4650116
	c-0.3773804,9.0965881-1.257782,18.5700378-2.557251,28.2532959c8.4257507-8.5093994,15.2165833-17.5220642,20.1629639-26.9955292
	C434.0284119,153.7584686,428.1179504,153.2974243,422.6265869,153.4650116z M452.7660217,157.2378082
	c-2.7665405-0.6708374-5.4913635-1.2575073-8.1739807-1.7605133c-4.3597412,8.5093994-10.0606384,16.6836395-17.0190735,24.4385223
	C437.6753235,174.0473328,446.1010742,166.460022,452.7660217,157.2378082z M380.9172363,203.05513
	c-2.7667847,0-5.7428589-0.1256104-8.9287415-0.4610443c-0.0839233,1.4251099-0.125885,2.7665405-0.1678467,3.8984375v0.3354187
	c0.1678467,0.0417023,0.3773804,0.0836639,0.5449524,0.0836639c0.9223633,0.1678314,1.8864136,0.293457,2.8087769,0.419342
	c0.4610291,0.0836639,0.9220886,0.1256256,1.3831177,0.1675873c0.8804016,0.1258698,1.7607727,0.2095337,2.6409302,0.293457
	c1.2157898,0.1256256,2.4733276,0.209549,3.730835,0.2514954c1.5090027,0.0839233,3.01828,0.125885,4.5273132,0.125885
	c3.2275696,0,6.4134521-0.1678314,9.557373-0.5032654c2.0959473-0.2095337,4.1918945-0.503006,6.2458801-0.8381653
	c2.2218018-0.3773804,4.4016724-0.8384247,6.5393372-1.3833923c0.6708374-0.1675873,1.3414307-0.335434,2.0122681-0.503006
	c0.0836792,0,0.1676025-0.0419617,0.2514954-0.0839233c-0.0838928,0-0.1678162,0-0.2514954,0.0419617
	c1.6349182-4.2758179,2.3894043-8.7611694,2.7245789-11.9467926
	C409.1285706,197.3542328,398.6068726,203.05513,380.9172363,203.05513z M416.7158813,203.4325256
	c-0.5449829,0.2095337-1.131897,0.377121-1.6768494,0.5449524c0.5449524-0.1678314,1.1318665-0.3354187,1.6768494-0.5032501
	c0.7125549-0.2515106,1.3833923-0.503006,2.0959473-0.7545166c0.9640503-0.3351593,1.9283447-0.7125549,2.892395-1.0899353
	c0.7125549-0.2514954,1.425354-0.5447083,2.1379089-0.880127c0.3354187-0.125885,0.7125549-0.293457,1.0899353-0.4610443
	l-6.0782776-7.9646912C418.5603027,195.1743622,418.0153503,199.1986694,416.7158813,203.4325256z M428.8305054,198.4441528
	c2.0120239-0.9642944,3.9403687-2.0542297,5.8684692-3.1858673c1.2994995-0.7545166,2.557251-1.5509796,3.8147888-2.431366
	c-7.2518921-0.2934723-13.1625977-2.0120239-16.5160522-3.2695465L428.8305054,198.4441528z M424.9320679,186.1199951
	c4.2755432,1.3831329,11.4857483,3.0599976,19.6599731,2.3474426c0.3351746-0.2095337,0.6286316-0.4613037,0.9640503-0.7545013
	c1.2155457-0.9643097,2.3894043-1.9703217,3.5213013-2.9763336c1.1316528-1.006012,2.2635193-2.0539856,3.3114929-3.1019592
	c0.5449829-0.503006,1.0479736-1.006012,1.5509949-1.5509796c1.2155457-1.2158051,2.3894043-2.5152893,3.5213013-3.8147583
	c0.041687-0.0419617,0.041687-0.0419617,0.0836487-0.0836639c1.2575378-1.4673157,2.5152893-3.0182953,3.7308655-4.6112366
	c1.1318665-1.5090179,2.2635193-3.1019592,3.3534546-4.6949005c0.0839233-0.167572,0.1678162-0.293457,0.2514954-0.4190826
	c0.8804016-1.3414307,1.718811-2.6828766,2.5569763-4.0662689c0.1678467-0.2514954,0.2934875-0.5449677,0.4613037-0.796463
	c-3.6888733-1.2155609-7.3357849-2.3054962-10.7731628-3.2695465
	C448.9515076,170.1069489,438.1363831,179.4128113,424.9320679,186.1199951z M463.9165955,136.487915h-11.7792053
	l-0.167572,0.5869293c-1.425354,4.9044342-3.2278442,9.7671661-5.4496765,14.5040283
	c2.8924255,0.5447083,5.8267822,1.2155457,8.7611694,1.9700623
	C458.7606506,148.2251434,461.6530762,142.5242462,463.9165955,136.487915z M442.2445984,150.8240967
	c2.2215576-4.6529388,4.1079712-9.4734497,5.5333252-14.3361816h-24.941803
	c0.1256409,4.1079712,0.0836792,8.4257355-0.0419617,12.785202
	C428.8305054,149.1474915,435.3698425,149.6924591,442.2445984,150.8240967z M316.0266113,75.4120483
	c-0.2932129-9.0963287,0.5449524-16.3065109,1.2158203-20.4983978
	c-9.7252197,11.2344894-16.7675781,24.8161697-20.1629944,39.7812424c-0.125885,0.3771286-0.2095337,0.754509-0.2514954,1.1316376
	c0.293457-0.3771286,0.5866699-0.754509,0.880127-1.1316376C303.241394,87.7781754,309.403595,81.3227615,316.0266113,75.4120483z
	 M298.8399658,100.060379c0.2514954,4.1499329,1.1738586,12.869133,4.4433899,23.3069
	c4.4014282-8.509407,9.8508301-16.3065109,16.1806335-23.2649384c-1.592926-6.2878342-2.6408997-12.7015457-3.1858826-19.2408829
	C309.9485779,86.7302017,304.1217957,93.1856232,298.8399658,100.060379z M317.2424316,151.033905
	c3.5629883-8.1742401,8.2578735-15.7195892,13.9588013-22.3848114c-4.4014282-7.4614258-7.9224854-15.4261169-10.395813-23.7679367
	c-6.2458801,7.1679688-11.4437866,15.2165756-15.6356506,24.0194473
	C308.3136902,137.1167908,312.337738,144.4945679,317.2424316,151.033905z M354.0890503,156.1478882
	c-3.8564758,5.4494019-6.8328247,11.6116028-8.9707336,18.4024506c7.92276,4.1079712,16.8515015,7.2099304,26.5347595,9.1382904
	c1.3833923-4.0662689,3.1858521-7.7968597,5.323761-11.1503143
	C368.5091553,167.6336212,360.8379211,162.1422577,354.0890503,156.1478882z M393.7024536,156.3574219
	c-4.2338562-7.0423431-8.3837891-14.4620667-12.3241882-22.0493774
	c-10.0606384,4.359726-18.3604736,10.5636444-24.7322388,18.4863739
	c6.6652222,5.9524231,14.2944946,11.401825,22.7202148,16.2225952
	C383.2227173,163.8191071,388.0434875,159.5433044,393.7024536,156.3574219z M341.3877563,172.4963531
	c2.305481-7.0843048,5.4913635-13.4980164,9.5993347-19.1989288c-6.790863-6.3717499-12.6176453-13.3721313-17.4801331-20.8755188
	c-5.4913635,6.6649628-9.9767151,14.2103119-13.2464905,22.3845367
	C326.1711731,161.8487854,333.2554626,167.8014526,341.3877563,172.4963531z M418.6442261,136.5298767v-0.0419617h-4.6531677
	V127.05616c-10.6473083,0.7125473-20.2886047,2.5989456-28.7143555,5.7009048
	c3.8984375,7.5036469,8.0066528,14.7975006,12.1985474,21.7139587c6.1619568-2.8084869,13.2462463-4.4850922,21.1270142-5.0300598
	C418.7279053,144.9975739,418.7698669,140.6797943,418.6442261,136.5298767z M470.6654663,108.2346191
	c0.4610596-4.0243073,0.7125549-7.8807755,0.7545166-11.5276947c-5.1559448-2.1379089-10.8148804-3.7728043-16.8512268-4.7368622
	c0.880127,5.5752869,1.299469,11.1086121,1.299469,16.4740982h14.7972412V108.2346191z M420.782135,108.4441605h30.8942261
	c0-5.5333252-0.4613037-11.2761917-1.3834229-17.1029816c-9.8091125-1.257515-20.7498779-1.0896759-32.4871216,0.4613037
	c1.173584,5.0720215,2.1379089,10.6053467,2.9343567,16.3482132L420.782135,108.4441605z M413.8654175,122.8642731h0.1256409
	v-14.4201126h2.5152588c-0.7544861-5.6589508-1.718811-11.0246887-2.892395-16.0130463
	c-3.1858826,0.4612961-6.6652222,1.0899277-10.5636597,1.8863983c-11.4857178,2.431366-22.0074158,5.7848282-31.3552246,9.934761
	c3.5210266,8.2161942,7.4614258,16.5580139,11.6533203,24.7742004
	C392.3190613,125.6727676,402.5472717,123.5768204,413.8654175,122.8642731z M320.1348267,71.8490448
	c8.9287415-7.4616852,18.6119995-13.7914772,28.7143555-18.9054604
	c-2.9343872-10.4797249-4.3594666-17.3964424-4.7788086-19.4923897
	c-8.2998657,4.3597298-15.8871765,10.0186768-22.4684753,16.6419373l0.8384094,0.2095413l-0.4610291,2.0539856
	C321.5179749,54.4945641,320.1348267,61.6208267,320.1348267,71.8490448z M320.3024292,77.2145309
	c0.293457,6.5393372,1.1738281,12.9950104,2.6408997,19.2828445c9.0963135-9.0965805,20.0373535-16.6838913,32.5291138-22.5943451
	c-2.0959473-5.9943695-3.8984375-11.6535759-5.4077148-16.8514748
	C339.5013428,62.4172974,329.482666,69.1661758,320.3024292,77.2145309z M352.7056274,51.099144
	c12.114624-5.6589508,25.067688-9.5993347,38.481781-11.7372398c-7.0842896-10.1025982-12.8691406-14.6716137-12.9530334-14.7555332
	l-1.6349182-1.257515l0.0419617-0.0419617c-10.1862488,1.1318932-19.8275452,3.9823475-28.6726379,8.1742363l0.0839233,0.5449657
	C348.0946655,32.1100159,349.4360962,39.2779846,352.7056274,51.099144z M353.8794861,55.1654091
	c1.5090332,5.2398605,3.3114929,10.9407692,5.4074402,17.019062c5.4913635-2.431366,11.2762146-4.5273132,17.1869202-6.2461319
	c8.9704285-2.6409111,17.8992004-4.6109772,26.4508057-5.8265305c-2.6408997-5.9526672-5.7428589-11.6535759-9.1382751-16.8934402
	C379.994873,45.1886902,366.4551697,49.2127419,353.8794861,55.1654091z M324.1171875,101.317894
	c2.3474426,8.4677048,5.7008972,16.5160599,10.0184021,24.0197067c8.6352844-9.3061295,19.3665161-17.0610275,32.1100159-23.1393127
	c-3.5213013-8.2161942-6.6651917-16.3901749-9.3897705-24.312912
	C344.1123047,83.9217072,333.087616,91.8444443,324.1171875,101.317894z M379.4499207,130.6194153
	c-4.1499329-8.1322708-8.0064087-16.3904266-11.52771-24.5646591
	c-12.5756531,5.9943695-23.2229614,13.7495193-31.5228271,23.0553818
	c4.6948853,7.5036469,10.4797363,14.54599,17.1866455,20.8338318
	C360.2929382,141.6438599,369.012146,135.1045227,379.4499207,130.6194153z M402.211853,90.2095413
	c3.7727966-0.7964706,7.2101746-1.425354,10.3960571-1.8863983c-2.0539856-8.5933228-4.6948853-16.6836395-7.9227295-24.1872864
	c-8.7192078,1.173851-17.8155518,3.1439209-27.0377502,5.8267899c-5.8684998,1.7185593-11.5696411,3.7728043-16.9770813,6.2039108
	c2.76651,7.9227371,5.8687439,16.0969696,9.3478088,24.2712097
	C379.6177673,96.1199951,390.4326477,92.7245712,402.211853,90.2095413z M395.8822937,38.733017
	c10.8149109-1.3831367,22.3006287-1.5929375,33.9961853-0.5869255c-1.8864136-3.0180359-3.1439209-4.736599-3.1439209-4.736599
	l-1.2575073-1.7188187l0.7544861-0.5449657c-11.7791748-5.4494057-24.8998108-8.5094032-38.7749634-8.5094032
	c-1.6348877,0-3.3117676,0.0419598-4.9046936,0.1256237C385.0671692,25.1093769,390.1394348,30.2236156,395.8822937,38.733017z
	 M398.3973389,42.6734047c3.3114929,5.2818222,6.2878418,10.9407692,8.8867798,16.8514786
	c11.2342529-1.5509796,22.4684753-1.8864021,33.2836304-1.0899353c-2.8504639-6.581295-5.7428894-11.9887428-7.9227295-15.7615433
	C420.9497375,41.4158897,409.5059509,41.4158897,398.3973389,42.6734047z M435.1602783,38.6910591
	c1.7185669,0.1678391,3.4374084,0.3773804,5.4494324,0.670845c-2.6409302-1.8444405-5.4074707-3.5632591-8.2581787-5.155941
	c0.7964783,1.1735954,1.7188416,2.6826134,2.7667847,4.485096H435.1602783z M445.2206726,58.7703705
	c6.1202393,0.5869293,12.0307007,1.4670601,17.6899109,2.6828728c-4.8207703-6.7491379-10.521698-12.7854691-16.9353943-18.0253296
	c0,0-6.5393372,0-8.2159424-0.2095451C439.9808044,47.2426758,442.6636963,52.5662003,445.2206726,58.7703705z
	 M449.4964905,87.0236664c-1.5090332-8.0903168-3.9403992-16.2225952-7.1682434-24.2709465
	c-10.8988037-0.9223518-22.0910645-0.6288872-33.3672791,0.7964668c3.1858826,7.5453491,5.8265381,15.6776276,7.8807983,24.2289886
	C428.4111633,86.14328,439.4358521,85.891777,449.4964905,87.0236664z M453.855957,87.6105957
	c6.2878418,0.9640503,12.1985474,2.5150299,17.6479492,4.6529312c-0.0419617-7.0843048-3.1858826-22.4684677-5.2818298-25.78022
	l-2.0539856-0.4610443c-5.4494019-1.2575226-11.2342224-2.2215729-17.144928-2.8504562
	C450.1253662,71.2621231,452.4308472,79.4783173,453.855957,87.6105957z M468.401947,136.487915l-0.2514954,0.7125397
	c-2.2637939,6.1622162-5.1562195,12.0307007-8.6352844,17.4803619c3.2275696,0.9221039,6.6229858,1.9281158,10.0603638,3.0180511
	l0.3773804,0.1258698c3.4373779-6.6652069,6.1202698-13.8334351,7.8388367-21.3368225H468.401947z"/>
</svg>
